<?xml version="1.0" encoding="UTF-8"?>
<svg xmlns="http://www.w3.org/2000/svg" xmlns:xlink="http://www.w3.org/1999/xlink" width="1032" height="188" viewBox="10 78 1032 188" role="img" aria-labelledby="title">
<title id="title">Sonafolio wordmark C, Source Sans 3 Semibold</title>
<defs>
<g>
<g id="glyph-0-0">
<path d="M 70.144531 3.070312 C 58.539062 3.070312 47.574219 0.9375 37.246094 -3.328125 C 26.921875 -7.59375 17.75 -13.652344 9.726562 -21.503906 L 25.855469 -40.960938 C 31.828125 -35.15625 38.785156 -30.675781 46.71875 -27.519531 C 54.65625 -24.363281 62.632812 -22.785156 70.65625 -22.785156 C 80.214844 -22.785156 87.464844 -24.746094 92.414062 -28.671875 C 97.367188 -32.597656 99.839844 -37.800781 99.839844 -44.289062 C 99.839844 -48.894531 98.730469 -52.609375 96.511719 -55.425781 C 94.292969 -58.238281 91.265625 -60.671875 87.425781 -62.71875 C 83.585938 -64.769531 79.105469 -66.816406 73.984375 -68.863281 L 50.945312 -78.847656 C 45.484375 -81.238281 40.148438 -84.351562 34.945312 -88.191406 C 29.738281 -92.03125 25.472656 -96.8125 22.144531 -102.527344 C 18.816406 -108.246094 17.152344 -115.199219 17.152344 -123.390625 C 17.152344 -132.265625 19.585938 -140.246094 24.449219 -147.328125 C 29.3125 -154.410156 35.96875 -160.042969 44.414062 -164.222656 C 52.863281 -168.40625 62.550781 -170.496094 73.472656 -170.496094 C 83.542969 -170.496094 93.054688 -168.660156 102.015625 -164.992188 C 110.976562 -161.324219 118.613281 -156.332031 124.929688 -150.015625 L 109.3125 -130.558594 C 103.851562 -134.996094 98.132812 -138.453125 92.160156 -140.929688 C 86.1875 -143.402344 79.957031 -144.640625 73.472656 -144.640625 C 65.621094 -144.640625 59.265625 -142.890625 54.398438 -139.390625 C 49.535156 -135.894531 47.105469 -131.070312 47.105469 -124.929688 C 47.105469 -120.660156 48.339844 -117.121094 50.816406 -114.304688 C 53.289062 -111.488281 56.617188 -109.097656 60.800781 -107.136719 C 64.980469 -105.171875 69.289062 -103.253906 73.726562 -101.375 L 96.511719 -91.902344 C 103.167969 -89.003906 109.054688 -85.589844 114.175781 -81.664062 C 119.296875 -77.738281 123.265625 -72.960938 126.078125 -67.328125 C 128.894531 -61.695312 130.304688 -54.785156 130.304688 -46.59375 C 130.304688 -37.546875 127.914062 -29.269531 123.136719 -21.761719 C 118.355469 -14.25 111.488281 -8.234375 102.527344 -3.710938 C 93.566406 0.8125 82.773438 3.070312 70.144531 3.070312 Z M 70.144531 3.070312 "/>
</g>
<g id="glyph-0-1">
<path d="M 70.144531 3.070312 C 59.734375 3.070312 50.003906 0.46875 40.960938 -4.734375 C 31.914062 -9.941406 24.574219 -17.449219 18.945312 -27.265625 C 13.3125 -37.078125 10.496094 -48.894531 10.496094 -62.71875 C 10.496094 -76.714844 13.3125 -88.617188 18.945312 -98.433594 C 24.574219 -108.246094 31.914062 -115.753906 40.960938 -120.960938 C 50.003906 -126.164062 59.734375 -128.769531 70.144531 -128.769531 C 80.726562 -128.769531 90.539062 -126.164062 99.585938 -120.960938 C 108.628906 -115.753906 115.96875 -108.246094 121.601562 -98.433594 C 127.230469 -88.617188 130.046875 -76.714844 130.046875 -62.71875 C 130.046875 -48.894531 127.230469 -37.078125 121.601562 -27.265625 C 115.96875 -17.449219 108.628906 -9.941406 99.585938 -4.734375 C 90.539062 0.46875 80.726562 3.070312 70.144531 3.070312 Z M 70.144531 -20.992188 C 76.289062 -20.992188 81.578125 -22.699219 86.015625 -26.113281 C 90.453125 -29.523438 93.867188 -34.390625 96.257812 -40.703125 C 98.644531 -47.019531 99.839844 -54.355469 99.839844 -62.71875 C 99.839844 -71.082031 98.644531 -78.421875 96.257812 -84.734375 C 93.867188 -91.050781 90.453125 -95.957031 86.015625 -99.457031 C 81.578125 -102.953125 76.289062 -104.703125 70.144531 -104.703125 C 64 -104.703125 58.753906 -102.953125 54.398438 -99.457031 C 50.046875 -95.957031 46.675781 -91.050781 44.289062 -84.734375 C 41.898438 -78.421875 40.703125 -71.082031 40.703125 -62.71875 C 40.703125 -54.355469 41.898438 -47.019531 44.289062 -40.703125 C 46.675781 -34.390625 50.046875 -29.523438 54.398438 -26.113281 C 58.753906 -22.699219 64 -20.992188 70.144531 -20.992188 Z M 70.144531 -20.992188 "/>
</g>
<g id="glyph-0-2">
<path d="M 18.6875 0 L 18.6875 -125.695312 L 43.007812 -125.695312 L 45.054688 -108.800781 L 46.078125 -108.800781 C 51.710938 -114.261719 57.855469 -118.953125 64.511719 -122.878906 C 71.167969 -126.804688 78.761719 -128.769531 87.296875 -128.769531 C 100.777344 -128.769531 110.59375 -124.414062 116.734375 -115.710938 C 122.878906 -107.007812 125.953125 -94.71875 125.953125 -78.847656 L 125.953125 0 L 96.511719 0 L 96.511719 -75.007812 C 96.511719 -85.417969 94.976562 -92.757812 91.902344 -97.023438 C 88.832031 -101.289062 83.796875 -103.425781 76.800781 -103.425781 C 71.339844 -103.425781 66.515625 -102.101562 62.335938 -99.457031 C 58.15625 -96.8125 53.417969 -92.929688 48.128906 -87.808594 L 48.128906 0 Z M 18.6875 0 "/>
</g>
<g id="glyph-0-3">
<path d="M 49.152344 3.070312 C 41.8125 3.070312 35.328125 1.535156 29.695312 -1.535156 C 24.0625 -4.609375 19.667969 -8.917969 16.511719 -14.464844 C 13.355469 -20.011719 11.777344 -26.453125 11.777344 -33.792969 C 11.777344 -47.957031 17.707031 -58.667969 29.566406 -65.921875 C 41.429688 -73.171875 60.246094 -78.164062 86.015625 -80.894531 C 85.84375 -85.164062 85.035156 -89.089844 83.585938 -92.671875 C 82.132812 -96.257812 79.742188 -99.113281 76.414062 -101.246094 C 73.089844 -103.382812 68.609375 -104.449219 62.976562 -104.449219 C 56.832031 -104.449219 50.816406 -103.339844 44.929688 -101.121094 C 39.039062 -98.902344 33.28125 -96.085938 27.648438 -92.671875 L 16.894531 -112.640625 C 21.503906 -115.542969 26.539062 -118.230469 32 -120.703125 C 37.460938 -123.179688 43.265625 -125.140625 49.40625 -126.59375 C 55.550781 -128.042969 61.953125 -128.769531 68.609375 -128.769531 C 79.019531 -128.769531 87.679688 -126.675781 94.59375 -122.496094 C 101.503906 -118.316406 106.710938 -112.171875 110.207031 -104.0625 C 113.707031 -95.957031 115.457031 -86.015625 115.457031 -74.238281 L 115.457031 0 L 91.136719 0 L 89.089844 -13.824219 L 88.0625 -13.824219 C 82.261719 -9.046875 76.203125 -5.035156 69.886719 -1.792969 C 63.574219 1.449219 56.660156 3.070312 49.152344 3.070312 Z M 58.367188 -20.992188 C 63.488281 -20.992188 68.222656 -22.058594 72.574219 -24.191406 C 76.929688 -26.324219 81.40625 -29.523438 86.015625 -33.792969 L 86.015625 -60.414062 C 74.582031 -59.050781 65.535156 -57.257812 58.878906 -55.039062 C 52.222656 -52.820312 47.488281 -50.132812 44.671875 -46.976562 C 41.855469 -43.820312 40.449219 -40.105469 40.449219 -35.839844 C 40.449219 -30.550781 42.15625 -26.753906 45.566406 -24.449219 C 48.980469 -22.144531 53.246094 -20.992188 58.367188 -20.992188 Z M 58.367188 -20.992188 "/>
</g>
<g id="glyph-0-4">
<path d="M 23.808594 0 L 23.808594 -138.753906 C 23.808594 -147.457031 25.214844 -155.222656 28.03125 -162.046875 C 30.847656 -168.875 35.328125 -174.207031 41.472656 -178.046875 C 47.617188 -181.886719 55.636719 -183.808594 65.535156 -183.808594 C 70.144531 -183.808594 74.453125 -183.382812 78.464844 -182.527344 C 82.476562 -181.675781 85.84375 -180.652344 88.574219 -179.457031 L 82.433594 -158.207031 C 77.996094 -159.742188 73.558594 -160.511719 69.121094 -160.511719 C 64 -160.511719 60.074219 -158.804688 57.34375 -155.390625 C 54.613281 -151.980469 53.246094 -146.601562 53.246094 -139.265625 L 53.246094 0 Z M 5.121094 -102.398438 L 5.121094 -124.414062 L 25.601562 -125.695312 L 77.824219 -125.695312 L 77.824219 -102.398438 Z M 5.121094 -102.398438 "/>
</g>
<g id="glyph-0-5">
<path d="M 47.359375 2.558594 C 40.363281 2.558594 34.773438 1.152344 30.59375 -1.664062 C 26.410156 -4.480469 23.382812 -8.535156 21.503906 -13.824219 C 19.625 -19.113281 18.6875 -25.429688 18.6875 -32.769531 L 18.6875 -180.734375 L 48.128906 -180.734375 L 48.128906 -31.230469 C 48.128906 -27.476562 48.8125 -24.917969 50.175781 -23.550781 C 51.542969 -22.1875 53.078125 -21.503906 54.785156 -21.503906 C 55.464844 -21.503906 56.105469 -21.546875 56.703125 -21.632812 C 57.300781 -21.71875 58.113281 -21.84375 59.136719 -22.015625 L 62.976562 0 C 61.269531 0.683594 59.09375 1.28125 56.449219 1.792969 C 53.800781 2.304688 50.773438 2.558594 47.359375 2.558594 Z M 47.359375 2.558594 "/>
</g>
<g id="glyph-0-6">
<path d="M 18.6875 0 L 18.6875 -125.695312 L 48.128906 -125.695312 L 48.128906 0 Z M 33.28125 -147.710938 C 28.160156 -147.710938 23.9375 -149.246094 20.609375 -152.320312 C 17.28125 -155.390625 15.617188 -159.488281 15.617188 -164.609375 C 15.617188 -169.726562 17.28125 -173.78125 20.609375 -176.769531 C 23.9375 -179.753906 28.160156 -181.246094 33.28125 -181.246094 C 38.570312 -181.246094 42.835938 -179.753906 46.078125 -176.769531 C 49.324219 -173.78125 50.945312 -169.726562 50.945312 -164.609375 C 50.945312 -159.488281 49.324219 -155.390625 46.078125 -152.320312 C 42.835938 -149.246094 38.570312 -147.710938 33.28125 -147.710938 Z M 33.28125 -147.710938 "/>
</g>
</g>
</defs>
<g fill="currentColor" fill-opacity="1">
<use xlink:href="#glyph-0-0" x="0" y="262.140625"/>
<use xlink:href="#glyph-0-1" x="139.515625" y="262.140625"/>
<use xlink:href="#glyph-0-2" x="280.0625" y="262.140625"/>
<use xlink:href="#glyph-0-3" x="423.421875" y="262.140625"/>
<use xlink:href="#glyph-0-4" x="555.515625" y="262.140625"/>
<use xlink:href="#glyph-0-1" x="634.109375" y="262.140625"/>
<use xlink:href="#glyph-0-5" x="774.65625" y="262.140625"/>
<use xlink:href="#glyph-0-6" x="844.03125" y="262.140625"/>
<use xlink:href="#glyph-0-1" x="911.109375" y="262.140625"/>
</g>
</svg>
