<?xml version="1.0" encoding="UTF-8"?>
<svg xmlns="http://www.w3.org/2000/svg" xmlns:xlink="http://www.w3.org/1999/xlink"
     width="1400" height="460" viewBox="0 0 1400 460"
     color="#F2E7D5" role="img" aria-labelledby="title">
  <title id="title">Sonafolio Traditional Chinese lockup, Midnight Paper</title>
  <rect width="1400" height="460" fill="#17172A"/>
  <svg x="60" y="90" width="280" height="280" viewBox="0 0 1024 1024">
    <path d="M 334.500 123.138 C 314.548 126.734, 313.092 127.093, 298.883 131.922 C 273.345 140.600, 248.192 156.745, 228.435 177.142 C 211.658 194.460, 200.825 210.020, 190.194 232.064 C 175.043 263.480, 167.705 296.986, 167.650 335 C 167.615 358.849, 168.815 368.961, 174.709 394.500 C 180.873 421.209, 194.372 450.605, 210.708 472.893 C 216.296 480.516, 226.572 492.455, 235 501.114 C 242.484 508.804, 256.996 523.991, 265.957 533.514 C 270.609 538.456, 278.709 547.005, 283.957 552.511 C 289.206 558.018, 297.332 566.568, 302.015 571.511 C 306.698 576.455, 319.323 589.725, 330.070 601 C 340.817 612.275, 352.013 624.088, 354.950 627.250 L 360.290 633 396.586 633 C 416.549 633, 433.118 632.617, 433.408 632.150 C 433.697 631.682, 431.136 628.411, 427.717 624.882 C 424.297 621.353, 416.789 613.523, 411.031 607.483 C 405.274 601.442, 396.033 591.775, 390.497 586 C 357.581 551.665, 342 535.039, 342 534.251 C 342 533.759, 345.477 531.368, 349.726 528.936 C 356.490 525.066, 358.332 524.472, 364.526 524.159 C 375.204 523.620, 378.927 525.740, 394 540.944 C 405.863 552.910, 421.019 568.561, 443.449 592.006 C 448.977 597.784, 459.462 608.651, 466.750 616.155 L 480 629.798 480 643.399 L 480 657 372.365 657 C 299.344 657, 262.603 657.351, 258.115 658.091 C 220.872 664.232, 191.956 682.326, 172.210 711.846 C 160.206 729.793, 154.373 746.354, 151.984 769.268 C 150.299 785.432, 152.042 800.515, 157.674 818.500 C 165.298 842.846, 181.427 864.818, 203.500 880.926 C 216.745 890.591, 228.192 895.995, 245.500 900.752 L 255.500 903.500 478.500 903.500 C 690.793 903.500, 701.956 903.412, 711 901.663 C 730.641 897.865, 745.105 893.074, 760.117 885.396 C 788.155 871.054, 810.696 851.954, 829.736 826.405 C 840.200 812.364, 847.235 799.515, 855.965 778.500 C 859.690 769.534, 864.866 751.802, 867.933 737.500 C 873.434 711.846, 873.417 673.910, 867.893 646 C 861.780 615.117, 851.065 587.685, 835.690 563.558 C 821.804 541.767, 805.833 524.738, 777.500 501.514 C 754.271 482.472, 722.676 456.631, 712.650 448.473 C 685.877 426.688, 666.360 410.738, 651.607 398.586 C 641.648 390.384, 629.526 380.533, 624.669 376.695 C 618.881 372.123, 616.256 369.460, 617.051 368.968 C 617.718 368.556, 650.826 368.148, 690.623 368.063 C 765.573 367.902, 767.777 367.795, 782.500 363.625 C 802.527 357.953, 821.730 346.586, 836.556 331.628 C 854.402 313.623, 864.095 295.496, 870.047 269 C 872.493 258.114, 872.711 234.221, 870.471 222.500 C 865.820 198.152, 853.567 174.815, 836.602 157.994 C 818.662 140.205, 798.863 129.479, 773.913 124.034 C 764.695 122.022, 762.278 122.001, 552.047 122.118 C 430.827 122.186, 337.352 122.624, 334.500 123.138 M 342.500 176.531 C 326.613 179.037, 316.267 182.306, 302.600 189.138 C 288.986 195.944, 279.076 202.978, 268.981 213 C 257.573 224.325, 248.359 236.896, 241.171 250.943 C 229.502 273.748, 224.448 292.070, 221.866 320.923 C 220.859 332.186, 220.855 337.848, 221.849 349.250 C 223.260 365.428, 224.305 371.718, 227.703 384.500 C 232.302 401.797, 238.983 417.251, 247.782 430.947 C 257.226 445.646, 259.273 448.057, 286.224 476.234 C 295.553 485.987, 304.077 495.100, 305.166 496.484 C 306.254 497.868, 307.577 499, 308.105 499 C 308.632 499, 312.537 496.585, 316.782 493.634 C 327.281 486.336, 332.304 483.684, 341.455 480.610 C 364.030 473.028, 387.333 476.254, 408.500 489.893 C 415.227 494.227, 421.017 499.895, 466.328 546.500 L 479.939 560.500 479.933 544 L 479.926 527.500 464.828 512 C 456.525 503.475, 438.218 484.575, 424.147 470 C 387.488 432.028, 383.992 428.659, 378.476 425.988 C 375.710 424.650, 371.026 423.412, 367.853 423.183 C 363.272 422.852, 361.070 423.279, 356.436 425.401 C 353.279 426.846, 346.377 431.074, 341.098 434.797 C 322.833 447.676, 320.060 449.010, 311.601 448.985 C 300.566 448.952, 291.923 443.396, 286.745 433.005 L 284.500 428.500 284.500 348 L 284.500 267.500 286.835 260.500 C 290.458 249.638, 294.705 242.563, 301.894 235.411 C 306.902 230.429, 310.677 227.798, 317.500 224.532 C 323.314 221.750, 329.046 219.832, 333.693 219.113 C 338.799 218.323, 400.443 218, 546.261 218 C 772.956 218, 757.326 217.553, 766.151 224.285 C 768.495 226.072, 771.533 229.741, 772.945 232.489 C 775.029 236.542, 775.495 238.845, 775.474 244.979 C 775.445 253.568, 773.799 257.841, 768.363 263.438 C 766.452 265.406, 763 268.026, 760.694 269.258 L 756.500 271.500 549 272 C 434.875 272.275, 340.938 272.864, 340.250 273.309 C 339.276 273.939, 339 285.793, 339 327 C 339 356.085, 339.339 380.091, 339.753 380.347 C 340.167 380.603, 342.262 380.208, 344.410 379.470 C 356.209 375.414, 374.254 375.145, 387 378.837 C 394.562 381.027, 405.501 386.393, 412.182 391.190 C 414.757 393.039, 419.707 397.288, 423.182 400.632 C 429.009 406.239, 462.092 440.541, 473.448 452.750 C 476.134 455.637, 478.693 458, 479.136 458 C 479.579 458, 480.079 430.663, 480.248 397.250 C 480.485 350.445, 480.857 335.604, 481.868 332.595 C 482.612 330.379, 485.412 326.486, 488.340 323.595 C 497.776 314.278, 486.128 314.989, 629.201 314.995 C 716.201 314.998, 756.533 314.664, 760.201 313.908 C 785.169 308.761, 803.512 294.182, 813.536 271.514 C 817.149 263.345, 819.324 250.683, 818.691 241.500 C 817.962 230.914, 815.862 223.304, 810.826 213 C 807.472 206.137, 805.010 202.853, 798.041 195.946 C 790.905 188.873, 787.775 186.596, 779.955 182.788 C 762.654 174.361, 781.083 174.983, 553.127 175.135 C 395.480 175.240, 348.724 175.550, 342.500 176.531 M 534.514 374.139 C 534.235 374.887, 533.892 446.825, 533.753 534 C 533.531 672.806, 533.314 692.811, 532 695 C 528.296 701.173, 524.763 704.815, 519.824 707.551 L 514.500 710.500 388 711.024 L 261.500 711.548 253.728 714.303 C 249.454 715.819, 244.279 717.996, 242.228 719.141 C 219.675 731.739, 205.968 754.893, 206.015 780.312 C 206.033 789.807, 208.742 801.716, 212.882 810.500 C 216.744 818.693, 224.126 828.200, 231.195 834.083 C 234.434 836.778, 240.778 840.758, 245.292 842.926 C 261.276 850.603, 241.294 850, 479.644 850 C 667.089 850, 694.488 849.811, 701.500 848.475 C 732.495 842.569, 760.246 825.788, 781.122 800.327 C 798.682 778.910, 809.752 753.285, 815.609 720.500 C 818.061 706.775, 818.041 675.608, 815.573 661.500 C 810.037 629.871, 798.376 602.149, 781.534 580.581 C 772.317 568.776, 761.624 558.203, 746.500 545.939 C 739.350 540.141, 715.500 520.663, 693.500 502.654 C 671.500 484.645, 650.800 467.707, 647.500 465.015 C 644.200 462.323, 630.475 451.073, 617 440.015 C 581.592 410.959, 576.155 406.495, 559.500 392.801 C 534.272 372.059, 535.069 372.654, 534.514 374.139 M 579.435 476.890 C 573.525 479.575, 568.527 484.352, 565.969 489.762 C 561.815 498.548, 563.512 511.606, 569.704 518.500 C 571.552 520.558, 582.134 529.468, 599.397 543.500 C 608.883 551.211, 617.449 558.255, 647.500 583.057 C 655.200 589.413, 664.200 596.766, 667.500 599.398 C 676.944 606.930, 689.887 619.962, 694.151 626.232 C 703.852 640.495, 709.913 656.853, 712.615 676.061 C 716.503 703.709, 709.686 732.708, 693.595 756.965 C 684.087 771.298, 683.556 772.539, 683.526 780.500 C 683.506 785.922, 684.027 788.514, 685.837 792 C 690.626 801.219, 698.098 806.422, 708.211 807.578 C 714.871 808.340, 721.882 806.100, 727.729 801.342 C 735.435 795.071, 749.906 770.859, 757.519 751.500 C 761.917 740.317, 765.871 722.666, 767.548 706.736 C 768.806 694.776, 768.896 689.647, 768.019 679.736 C 764.537 640.391, 751.897 608.844, 729.259 583 C 722.449 575.226, 716.526 569.964, 691.500 549.460 C 681.050 540.898, 669.350 531.307, 665.500 528.147 C 661.650 524.987, 652.696 517.699, 645.603 511.951 C 638.510 506.203, 626.810 496.662, 619.603 490.750 C 603.248 477.331, 598.853 474.992, 590.054 475.022 C 585.858 475.036, 582.038 475.708, 579.435 476.890 M 583.718 580.062 C 578.051 581.440, 574.743 583.435, 570.698 587.913 C 565.717 593.426, 563.856 598.300, 563.792 606 C 563.731 613.368, 566.186 619.765, 570.942 624.629 C 572.516 626.239, 577.949 630.010, 583.015 633.009 C 605.567 646.358, 618.046 668.116, 618.282 694.500 C 618.331 700, 617.795 706.975, 617.092 710 C 613.652 724.789, 607.542 737.511, 600.495 744.558 C 596.728 748.325, 594.850 749.493, 587.500 752.643 C 586.400 753.114, 513.950 753.725, 426.500 754 L 267.500 754.500 262.834 757.243 C 256.989 760.679, 251.673 766.809, 250.161 771.858 C 248.524 777.322, 248.720 786.086, 250.579 790.535 C 253.017 796.371, 257.634 801.478, 263.320 804.629 L 268.500 807.500 429 807.500 C 596.481 807.500, 591.922 807.604, 604.500 803.481 C 627.649 795.891, 646.625 778.454, 659.511 752.933 C 664.447 743.156, 668.111 732.543, 670.640 720.695 C 673.146 708.955, 673.165 681.600, 670.676 670 C 666.731 651.612, 660.085 636.016, 650.366 622.333 C 639.772 607.420, 620.763 591.144, 605.500 583.922 C 596.876 579.841, 589.792 578.585, 583.718 580.062" fill="currentColor" fill-rule="evenodd"/>
  </svg>
  <svg x="390" y="92" width="753" height="140" viewBox="10 77 1016 189">
<defs>
<g>
<g id="latin-glyph-0-0">
<path d="M 69.886719 3.070312 C 58.113281 3.070312 47.1875 0.894531 37.121094 -3.457031 C 27.050781 -7.808594 18.089844 -13.910156 10.238281 -21.761719 L 24.320312 -38.398438 C 30.292969 -32.425781 37.332031 -27.734375 45.441406 -24.320312 C 53.546875 -20.90625 61.867188 -19.199219 70.398438 -19.199219 C 80.640625 -19.199219 88.535156 -21.460938 94.078125 -25.984375 C 99.625 -30.507812 102.398438 -36.4375 102.398438 -43.777344 C 102.398438 -48.894531 101.246094 -53.035156 98.945312 -56.191406 C 96.640625 -59.347656 93.441406 -61.996094 89.34375 -64.128906 C 85.246094 -66.261719 80.640625 -68.4375 75.519531 -70.65625 L 51.96875 -80.894531 C 46.507812 -83.285156 41.171875 -86.355469 35.96875 -90.113281 C 30.761719 -93.867188 26.453125 -98.558594 23.039062 -104.191406 C 19.625 -109.824219 17.921875 -116.734375 17.921875 -124.929688 C 17.921875 -133.632812 20.265625 -141.441406 24.960938 -148.351562 C 29.652344 -155.265625 36.097656 -160.726562 44.289062 -164.734375 C 52.480469 -168.746094 61.953125 -170.753906 72.703125 -170.753906 C 82.773438 -170.753906 92.160156 -168.875 100.863281 -165.121094 C 109.566406 -161.367188 116.992188 -156.414062 123.136719 -150.273438 L 109.566406 -133.632812 C 104.277344 -138.238281 98.515625 -141.867188 92.289062 -144.511719 C 86.058594 -147.15625 79.53125 -148.480469 72.703125 -148.480469 C 64 -148.480469 57.003906 -146.515625 51.710938 -142.59375 C 46.421875 -138.667969 43.777344 -133.289062 43.777344 -126.464844 C 43.777344 -121.515625 45.097656 -117.503906 47.742188 -114.433594 C 50.390625 -111.359375 53.84375 -108.800781 58.113281 -106.753906 C 62.378906 -104.703125 66.730469 -102.65625 71.167969 -100.609375 L 94.464844 -90.625 C 101.121094 -87.894531 107.007812 -84.609375 112.128906 -80.769531 C 117.246094 -76.929688 121.257812 -72.191406 124.160156 -66.558594 C 127.0625 -60.929688 128.511719 -54.015625 128.511719 -45.824219 C 128.511719 -36.777344 126.207031 -28.542969 121.601562 -21.121094 C 116.992188 -13.695312 110.292969 -7.808594 101.503906 -3.457031 C 92.714844 0.894531 82.175781 3.070312 69.886719 3.070312 Z M 69.886719 3.070312 "/>
</g>
<g id="latin-glyph-0-1">
<path d="M 69.886719 3.070312 C 59.476562 3.070312 49.835938 0.511719 40.960938 -4.609375 C 32.085938 -9.726562 24.875 -17.195312 19.328125 -27.007812 C 13.78125 -36.820312 11.007812 -48.640625 11.007812 -62.464844 C 11.007812 -76.289062 13.78125 -88.105469 19.328125 -97.921875 C 24.875 -107.734375 32.085938 -115.242188 40.960938 -120.449219 C 49.835938 -125.652344 59.476562 -128.257812 69.886719 -128.257812 C 80.128906 -128.257812 89.683594 -125.652344 98.558594 -120.449219 C 107.433594 -115.242188 114.644531 -107.734375 120.191406 -97.921875 C 125.738281 -88.105469 128.511719 -76.289062 128.511719 -62.464844 C 128.511719 -48.640625 125.738281 -36.820312 120.191406 -27.007812 C 114.644531 -17.195312 107.433594 -9.726562 98.558594 -4.609375 C 89.683594 0.511719 80.128906 3.070312 69.886719 3.070312 Z M 69.886719 -17.664062 C 76.542969 -17.664062 82.304688 -19.542969 87.167969 -23.296875 C 92.03125 -27.050781 95.785156 -32.257812 98.433594 -38.910156 C 101.078125 -45.566406 102.398438 -53.417969 102.398438 -62.464844 C 102.398438 -71.339844 101.078125 -79.148438 98.433594 -85.886719 C 95.785156 -92.628906 92.03125 -97.878906 87.167969 -101.632812 C 82.304688 -105.386719 76.542969 -107.265625 69.886719 -107.265625 C 63.230469 -107.265625 57.472656 -105.386719 52.609375 -101.632812 C 47.742188 -97.878906 43.945312 -92.628906 41.214844 -85.886719 C 38.484375 -79.148438 37.121094 -71.339844 37.121094 -62.464844 C 37.121094 -53.417969 38.484375 -45.566406 41.214844 -38.910156 C 43.945312 -32.257812 47.742188 -27.050781 52.609375 -23.296875 C 57.472656 -19.542969 63.230469 -17.664062 69.886719 -17.664062 Z M 69.886719 -17.664062 "/>
</g>
<g id="latin-glyph-0-2">
<path d="M 19.96875 0 L 19.96875 -125.183594 L 40.703125 -125.183594 L 42.753906 -107.519531 L 43.519531 -107.519531 C 49.324219 -113.324219 55.550781 -118.230469 62.207031 -122.238281 C 68.863281 -126.25 76.457031 -128.257812 84.992188 -128.257812 C 98.304688 -128.257812 108.03125 -123.988281 114.175781 -115.457031 C 120.320312 -106.921875 123.390625 -94.71875 123.390625 -78.847656 L 123.390625 0 L 98.046875 0 L 98.046875 -75.519531 C 98.046875 -86.613281 96.339844 -94.507812 92.929688 -99.199219 C 89.515625 -103.894531 84.054688 -106.238281 76.542969 -106.238281 C 70.570312 -106.238281 65.28125 -104.789062 60.671875 -101.886719 C 56.0625 -98.988281 50.945312 -94.71875 45.3125 -89.089844 L 45.3125 0 Z M 19.96875 0 "/>
</g>
<g id="latin-glyph-0-3">
<path d="M 49.40625 3.070312 C 42.238281 3.070312 35.882812 1.621094 30.335938 -1.28125 C 24.789062 -4.179688 20.4375 -8.363281 17.28125 -13.824219 C 14.121094 -19.285156 12.542969 -25.683594 12.542969 -33.023438 C 12.542969 -47.1875 18.558594 -57.855469 30.59375 -65.023438 C 42.625 -72.191406 61.695312 -77.226562 87.808594 -80.128906 C 87.808594 -84.734375 87.082031 -89.128906 85.632812 -93.3125 C 84.179688 -97.492188 81.664062 -100.820312 78.078125 -103.296875 C 74.496094 -105.769531 69.632812 -107.007812 63.488281 -107.007812 C 56.832031 -107.007812 50.476562 -105.8125 44.414062 -103.425781 C 38.355469 -101.035156 32.597656 -98.132812 27.136719 -94.71875 L 17.664062 -112.128906 C 21.929688 -114.859375 26.710938 -117.460938 32 -119.9375 C 37.289062 -122.410156 42.964844 -124.414062 49.023438 -125.953125 C 55.082031 -127.488281 61.441406 -128.257812 68.097656 -128.257812 C 78.335938 -128.257812 86.785156 -126.121094 93.441406 -121.855469 C 100.097656 -117.589844 105.046875 -111.53125 108.289062 -103.679688 C 111.53125 -95.828125 113.152344 -86.355469 113.152344 -75.265625 L 113.152344 0 L 92.160156 0 L 90.367188 -14.335938 L 89.34375 -14.335938 C 83.542969 -9.558594 77.355469 -5.460938 70.785156 -2.046875 C 64.214844 1.367188 57.089844 3.070312 49.40625 3.070312 Z M 57.089844 -17.664062 C 62.550781 -17.664062 67.710938 -18.902344 72.574219 -21.375 C 77.441406 -23.851562 82.515625 -27.476562 87.808594 -32.257812 L 87.808594 -62.207031 C 75.179688 -60.671875 65.152344 -58.667969 57.726562 -56.191406 C 50.304688 -53.71875 45.011719 -50.730469 41.855469 -47.230469 C 38.699219 -43.734375 37.121094 -39.59375 37.121094 -34.816406 C 37.121094 -28.671875 39.039062 -24.277344 42.878906 -21.632812 C 46.71875 -18.988281 51.457031 -17.664062 57.089844 -17.664062 Z M 57.089844 -17.664062 "/>
</g>
<g id="latin-glyph-0-4">
<path d="M 24.0625 0 L 24.0625 -141.3125 C 24.0625 -150.015625 25.429688 -157.609375 28.160156 -164.097656 C 30.890625 -170.582031 35.113281 -175.617188 40.832031 -179.199219 C 46.550781 -182.785156 54.015625 -184.574219 63.230469 -184.574219 C 67.5 -184.574219 71.550781 -184.148438 75.390625 -183.296875 C 79.230469 -182.441406 82.433594 -181.417969 84.992188 -180.222656 L 79.871094 -162.046875 C 75.09375 -163.585938 70.570312 -164.351562 66.304688 -164.351562 C 60.671875 -164.351562 56.449219 -162.476562 53.632812 -158.71875 C 50.816406 -154.964844 49.40625 -149.246094 49.40625 -141.566406 L 49.40625 0 Z M 5.632812 -104.703125 L 5.632812 -123.902344 L 25.601562 -125.183594 L 75.007812 -125.183594 L 75.007812 -104.703125 Z M 5.632812 -104.703125 "/>
</g>
<g id="latin-glyph-0-5">
<path d="M 45.3125 2.558594 C 39.167969 2.558594 34.21875 1.28125 30.464844 -1.28125 C 26.710938 -3.839844 23.980469 -7.464844 22.273438 -12.160156 C 20.566406 -16.851562 19.710938 -22.527344 19.710938 -29.183594 L 19.710938 -181.503906 L 45.054688 -181.503906 L 45.054688 -27.648438 C 45.054688 -24.0625 45.695312 -21.632812 46.976562 -20.351562 C 48.257812 -19.070312 49.75 -18.433594 51.457031 -18.433594 C 52.136719 -18.433594 52.777344 -18.476562 53.375 -18.558594 C 53.972656 -18.644531 54.785156 -18.773438 55.808594 -18.945312 L 59.390625 0 C 57.683594 0.683594 55.679688 1.28125 53.375 1.792969 C 51.070312 2.304688 48.382812 2.558594 45.3125 2.558594 Z M 45.3125 2.558594 "/>
</g>
<g id="latin-glyph-0-6">
<path d="M 19.710938 0 L 19.710938 -125.183594 L 45.054688 -125.183594 L 45.054688 0 Z M 32.511719 -148.992188 C 27.902344 -148.992188 24.105469 -150.398438 21.121094 -153.214844 C 18.132812 -156.03125 16.640625 -159.742188 16.640625 -164.351562 C 16.640625 -168.789062 18.132812 -172.414062 21.121094 -175.230469 C 24.105469 -178.046875 27.902344 -179.457031 32.511719 -179.457031 C 37.289062 -179.457031 41.128906 -178.046875 44.03125 -175.230469 C 46.933594 -172.414062 48.382812 -168.789062 48.382812 -164.351562 C 48.382812 -159.742188 46.933594 -156.03125 44.03125 -153.214844 C 41.128906 -150.398438 37.289062 -148.992188 32.511719 -148.992188 Z M 32.511719 -148.992188 "/>
</g>
</g>
</defs>
<g fill="currentColor" fill-opacity="1">
<use xlink:href="#latin-glyph-0-0" x="0" y="262.140625"/>
<use xlink:href="#latin-glyph-0-1" x="137.984375" y="262.140625"/>
<use xlink:href="#latin-glyph-0-2" x="277.765625" y="262.140625"/>
<use xlink:href="#latin-glyph-0-3" x="419.328125" y="262.140625"/>
<use xlink:href="#latin-glyph-0-4" x="549.890625" y="262.140625"/>
<use xlink:href="#latin-glyph-0-1" x="625.15625" y="262.140625"/>
<use xlink:href="#latin-glyph-0-5" x="764.9375" y="262.140625"/>
<use xlink:href="#latin-glyph-0-6" x="832.265625" y="262.140625"/>
<use xlink:href="#latin-glyph-0-1" x="897.296875" y="262.140625"/>
</g>
  </svg>
  <svg x="395" y="278" width="150" height="72" viewBox="11 80 495 240">
<defs>
<g>
<g id="hant-glyph-0-0">
<path d="M 14.59375 -204.289062 L 127.742188 -204.289062 L 127.742188 -191.230469 L 14.59375 -191.230469 Z M 22.527344 -181.503906 L 120.832031 -181.503906 L 120.832031 -168.703125 L 22.527344 -168.703125 Z M 36.097656 -160.769531 L 120.574219 -160.769531 L 120.574219 -119.039062 L 34.816406 -119.039062 L 34.816406 -131.839844 L 101.375 -131.839844 L 101.375 -147.710938 L 36.097656 -147.710938 Z M 25.601562 -160.769531 L 44.542969 -160.769531 L 44.542969 -145.152344 C 44.542969 -140.03125 44.074219 -134.484375 43.136719 -128.511719 C 42.199219 -122.539062 40.535156 -116.609375 38.144531 -110.71875 C 35.753906 -104.832031 32.171875 -99.5 27.390625 -94.71875 C 26.199219 -95.914062 24.535156 -97.195312 22.398438 -98.558594 C 20.265625 -99.925781 18.132812 -101.246094 16 -102.527344 C 13.867188 -103.808594 12.03125 -104.789062 10.496094 -105.472656 C 17.152344 -111.785156 21.332031 -118.613281 23.039062 -125.953125 C 24.746094 -133.289062 25.601562 -139.863281 25.601562 -145.664062 Z M 60.671875 -216.0625 L 82.6875 -216.0625 L 82.6875 -175.105469 L 60.671875 -175.105469 Z M 63.230469 -155.648438 L 80.640625 -155.648438 L 80.640625 -126.71875 L 63.230469 -126.71875 Z M 133.886719 -163.328125 L 215.039062 -163.328125 L 215.039062 -149.246094 L 133.886719 -149.246094 Z M 156.671875 -209.40625 L 203.777344 -209.40625 L 203.777344 -193.023438 L 156.671875 -193.023438 Z M 208.894531 -163.328125 L 213.246094 -163.328125 L 217.089844 -164.097656 L 229.375 -159.230469 C 224.257812 -147.113281 216.917969 -137.046875 207.359375 -129.023438 C 197.800781 -121.003906 186.625 -114.644531 173.824219 -109.953125 C 161.023438 -105.257812 147.285156 -101.71875 132.609375 -99.328125 C 131.753906 -101.71875 130.390625 -104.574219 128.511719 -107.902344 C 126.632812 -111.230469 124.757812 -113.921875 122.878906 -115.96875 C 135.851562 -117.503906 148.097656 -120.105469 159.617188 -123.777344 C 171.136719 -127.445312 181.207031 -132.308594 189.824219 -138.367188 C 198.441406 -144.425781 204.800781 -151.894531 208.894531 -160.769531 Z M 157.695312 -153.601562 C 162.476562 -146.601562 169.003906 -140.585938 177.28125 -135.550781 C 185.558594 -130.515625 195.199219 -126.421875 206.207031 -123.265625 C 217.214844 -120.105469 229.207031 -117.761719 242.175781 -116.222656 C 239.957031 -114.347656 237.78125 -111.785156 235.648438 -108.542969 C 233.515625 -105.300781 231.765625 -102.316406 230.398438 -99.585938 C 209.75 -102.828125 191.742188 -108.5 176.382812 -116.609375 C 161.023438 -124.714844 149.164062 -135.425781 140.800781 -148.734375 Z M 146.175781 -209.40625 L 164.863281 -209.40625 L 164.863281 -196.097656 C 164.863281 -191.488281 164.097656 -186.878906 162.558594 -182.273438 C 161.023438 -177.664062 158.292969 -173.3125 154.367188 -169.214844 C 150.441406 -165.121094 144.640625 -161.367188 136.960938 -157.953125 C 136.105469 -159.488281 134.871094 -161.195312 133.246094 -163.070312 C 131.625 -164.949219 129.960938 -166.785156 128.257812 -168.574219 C 126.550781 -170.367188 125.097656 -171.691406 123.902344 -172.542969 C 130.21875 -174.933594 134.996094 -177.449219 138.238281 -180.097656 C 141.484375 -182.742188 143.617188 -185.429688 144.640625 -188.160156 C 145.664062 -190.890625 146.175781 -193.707031 146.175781 -196.609375 Z M 22.015625 -98.816406 L 235.265625 -98.816406 L 235.265625 -81.40625 L 22.015625 -81.40625 Z M 68.097656 -70.144531 L 192.511719 -70.144531 L 192.511719 -55.039062 L 68.097656 -55.039062 Z M 68.609375 -42.753906 L 193.023438 -42.753906 L 193.023438 -27.902344 L 68.609375 -27.902344 Z M 51.710938 -91.648438 L 75.265625 -91.648438 L 75.265625 -6.910156 L 51.710938 -6.910156 Z M 180.734375 -92.414062 L 204.800781 -92.414062 L 204.800781 22.015625 L 180.734375 22.015625 Z M 193.28125 -209.40625 L 213.246094 -209.40625 L 213.246094 -186.625 C 213.246094 -184.0625 213.460938 -182.316406 213.886719 -181.375 C 214.316406 -180.4375 215.382812 -179.96875 217.089844 -179.96875 C 217.941406 -179.96875 219.09375 -179.96875 220.542969 -179.96875 C 221.996094 -179.96875 223.488281 -179.96875 225.023438 -179.96875 C 226.558594 -179.96875 227.667969 -179.96875 228.351562 -179.96875 C 230.058594 -179.96875 232.191406 -180.054688 234.753906 -180.222656 C 237.3125 -180.394531 239.359375 -180.734375 240.894531 -181.246094 C 241.066406 -178.6875 241.238281 -176.128906 241.40625 -173.566406 C 241.578125 -171.007812 241.835938 -168.535156 242.175781 -166.144531 C 240.640625 -165.800781 238.632812 -165.503906 236.160156 -165.246094 C 233.683594 -164.992188 231.339844 -164.863281 229.121094 -164.863281 C 227.753906 -164.863281 226.003906 -164.863281 223.871094 -164.863281 C 221.738281 -164.863281 219.519531 -164.863281 217.214844 -164.863281 C 214.910156 -164.863281 213.164062 -164.863281 211.96875 -164.863281 C 206.847656 -164.863281 202.921875 -165.675781 200.191406 -167.296875 C 197.460938 -168.917969 195.625 -171.347656 194.6875 -174.59375 C 193.75 -177.835938 193.28125 -181.84375 193.28125 -186.625 Z M 14.078125 -16.382812 L 240.894531 -16.382812 L 240.894531 1.023438 L 14.078125 1.023438 Z M 14.078125 -16.382812 "/>
</g>
<g id="hant-glyph-0-1">
<path d="M 78.335938 -84.734375 L 166.144531 -84.734375 L 166.144531 -63.742188 L 78.335938 -63.742188 Z M 62.71875 -84.734375 L 86.527344 -84.734375 L 86.527344 -14.847656 C 86.527344 -11.605469 87.082031 -9.171875 88.191406 -7.550781 C 89.300781 -5.929688 91.605469 -4.820312 95.105469 -4.222656 C 98.601562 -3.625 103.679688 -3.328125 110.335938 -3.328125 C 112.214844 -3.328125 115.242188 -3.328125 119.425781 -3.328125 C 123.605469 -3.328125 128.425781 -3.328125 133.886719 -3.328125 C 139.347656 -3.328125 144.894531 -3.328125 150.527344 -3.328125 C 156.160156 -3.328125 161.28125 -3.328125 165.886719 -3.328125 C 170.496094 -3.328125 173.996094 -3.328125 176.382812 -3.328125 C 182.015625 -3.328125 186.199219 -4.097656 188.929688 -5.632812 C 191.660156 -7.167969 193.621094 -10.113281 194.816406 -14.464844 C 196.011719 -18.816406 196.949219 -25.429688 197.632812 -34.304688 C 200.535156 -32.425781 204.160156 -30.675781 208.511719 -29.054688 C 212.863281 -27.433594 216.660156 -26.28125 219.902344 -25.601562 C 218.710938 -13.996094 216.789062 -4.992188 214.144531 1.40625 C 211.5 7.808594 207.359375 12.203125 201.726562 14.59375 C 196.097656 16.980469 188.074219 18.175781 177.664062 18.175781 C 175.957031 18.175781 172.84375 18.175781 168.320312 18.175781 C 163.796875 18.175781 158.507812 18.175781 152.449219 18.175781 C 146.390625 18.175781 140.375 18.175781 134.398438 18.175781 C 128.425781 18.175781 123.136719 18.175781 118.527344 18.175781 C 113.921875 18.175781 110.847656 18.175781 109.3125 18.175781 C 97.367188 18.175781 88.019531 17.28125 81.28125 15.488281 C 74.539062 13.695312 69.761719 10.410156 66.945312 5.632812 C 64.128906 0.851562 62.71875 -5.886719 62.71875 -14.59375 Z M 158.71875 -84.734375 L 182.785156 -84.734375 C 182.785156 -84.734375 182.742188 -83.667969 182.65625 -81.535156 C 182.570312 -79.402344 182.441406 -77.566406 182.273438 -76.03125 C 181.246094 -61.695312 179.96875 -50.945312 178.433594 -43.777344 C 176.894531 -36.609375 174.761719 -31.660156 172.03125 -28.929688 C 169.8125 -26.539062 167.296875 -24.875 164.480469 -23.9375 C 161.664062 -22.996094 158.464844 -22.441406 154.878906 -22.273438 C 151.464844 -21.929688 146.816406 -21.800781 140.929688 -21.886719 C 135.039062 -21.972656 128.597656 -22.1875 121.601562 -22.527344 C 121.429688 -25.429688 120.832031 -28.585938 119.808594 -32 C 118.785156 -35.414062 117.503906 -38.398438 115.96875 -40.960938 C 121.769531 -40.449219 127.273438 -40.148438 132.480469 -40.0625 C 137.683594 -39.980469 141.398438 -39.9375 143.617188 -39.9375 C 147.542969 -39.9375 150.273438 -40.617188 151.808594 -41.984375 C 153.515625 -43.519531 154.878906 -47.273438 155.902344 -53.246094 C 156.929688 -59.222656 157.867188 -68.691406 158.71875 -81.664062 Z M 15.105469 -129.792969 L 241.664062 -129.792969 L 241.664062 -108.03125 L 15.105469 -108.03125 Z M 30.976562 -174.847656 L 224.511719 -174.847656 L 224.511719 -153.855469 L 30.976562 -153.855469 Z M 167.167969 -127.742188 C 172.289062 -119.039062 179.15625 -110.890625 187.777344 -103.296875 C 196.394531 -95.703125 206.039062 -89.046875 216.703125 -83.328125 C 227.371094 -77.609375 238.675781 -73.128906 250.625 -69.886719 C 248.917969 -68.179688 247.039062 -66.175781 244.992188 -63.871094 C 242.945312 -61.566406 241.023438 -59.179688 239.230469 -56.703125 C 237.441406 -54.230469 235.945312 -51.96875 234.753906 -49.921875 C 222.464844 -54.015625 210.730469 -59.5625 199.550781 -66.558594 C 188.375 -73.558594 178.261719 -81.664062 169.214844 -90.878906 C 160.171875 -100.097656 152.574219 -109.996094 146.433594 -120.574219 Z M 121.089844 -217.089844 L 146.433594 -214.527344 C 143.871094 -198.316406 139.605469 -182.273438 133.632812 -166.398438 C 127.660156 -150.527344 119.765625 -135.425781 109.953125 -121.089844 C 100.140625 -106.753906 88.019531 -93.523438 73.601562 -81.40625 C 59.179688 -69.289062 42.238281 -58.710938 22.785156 -49.664062 C 21.929688 -51.882812 20.652344 -54.230469 18.945312 -56.703125 C 17.238281 -59.179688 15.402344 -61.609375 13.441406 -64 C 11.476562 -66.390625 9.558594 -68.265625 7.679688 -69.632812 C 26.28125 -77.652344 42.324219 -87.125 55.808594 -98.046875 C 69.289062 -108.96875 80.511719 -120.960938 89.472656 -134.015625 C 98.433594 -147.070312 105.515625 -160.640625 110.71875 -174.71875 C 115.925781 -188.800781 119.382812 -202.921875 121.089844 -217.089844 Z M 51.96875 -201.472656 L 70.65625 -211.457031 C 74.921875 -206.847656 79.1875 -201.683594 83.457031 -195.96875 C 87.722656 -190.25 90.878906 -185.257812 92.929688 -180.992188 L 73.214844 -169.726562 C 71.339844 -173.996094 68.351562 -179.113281 64.257812 -185.089844 C 60.160156 -191.0625 56.0625 -196.523438 51.96875 -201.472656 Z M 185.601562 -210.433594 L 208.128906 -203.265625 C 203.519531 -196.097656 198.699219 -189.011719 193.664062 -182.015625 C 188.628906 -175.019531 183.980469 -168.960938 179.710938 -163.839844 L 161.28125 -170.496094 C 164.011719 -174.078125 166.910156 -178.21875 169.984375 -182.910156 C 173.054688 -187.605469 175.957031 -192.382812 178.6875 -197.246094 C 181.417969 -202.113281 183.722656 -206.507812 185.601562 -210.433594 Z M 185.601562 -210.433594 "/>
</g>
</g>
</defs>
<g fill="currentColor" fill-opacity="1">
<use xlink:href="#hant-glyph-0-0" x="0" y="296.953125"/>
<use xlink:href="#hant-glyph-0-1" x="256" y="296.953125"/>
</g>
  </svg>
</svg>
