<?xml version="1.0" encoding="UTF-8"?>
<svg xmlns="http://www.w3.org/2000/svg" width="1024" height="1024" viewBox="0 0 1024 1024" role="img" aria-labelledby="title" >
  <title id="title">Sonafolio compact app icon candidate</title>

  <g>
    <rect width="1024" height="1024" fill="#17172A"/>
    <path d="M 334.500 123.138 C 314.548 126.734, 313.092 127.093, 298.883 131.922 C 273.345 140.600, 248.192 156.745, 228.435 177.142 C 211.658 194.460, 200.825 210.020, 190.194 232.064 C 175.043 263.480, 167.705 296.986, 167.650 335 C 167.615 358.849, 168.815 368.961, 174.709 394.500 C 180.873 421.209, 194.372 450.605, 210.708 472.893 C 216.296 480.516, 226.572 492.455, 235 501.114 C 242.484 508.804, 256.996 523.991, 265.957 533.514 C 270.609 538.456, 278.709 547.005, 283.957 552.511 C 289.206 558.018, 297.332 566.568, 302.015 571.511 C 306.698 576.455, 319.323 589.725, 330.070 601 C 340.817 612.275, 352.013 624.088, 354.950 627.250 L 360.290 633 396.586 633 C 416.549 633, 433.118 632.617, 433.408 632.150 C 433.697 631.682, 431.136 628.411, 427.717 624.882 C 424.297 621.353, 416.789 613.523, 411.031 607.483 C 405.274 601.442, 396.033 591.775, 390.497 586 C 357.581 551.665, 342 535.039, 342 534.251 C 342 533.759, 345.477 531.368, 349.726 528.936 C 356.490 525.066, 358.332 524.472, 364.526 524.159 C 375.204 523.620, 378.927 525.740, 394 540.944 C 405.863 552.910, 421.019 568.561, 443.449 592.006 C 448.977 597.784, 459.462 608.651, 466.750 616.155 L 480 629.798 480 643.399 L 480 657 372.365 657 C 299.344 657, 262.603 657.351, 258.115 658.091 C 220.872 664.232, 191.956 682.326, 172.210 711.846 C 160.206 729.793, 154.373 746.354, 151.984 769.268 C 150.299 785.432, 152.042 800.515, 157.674 818.500 C 165.298 842.846, 181.427 864.818, 203.500 880.926 C 216.745 890.591, 228.192 895.995, 245.500 900.752 L 255.500 903.500 478.500 903.500 C 690.793 903.500, 701.956 903.412, 711 901.663 C 730.641 897.865, 745.105 893.074, 760.117 885.396 C 788.155 871.054, 810.696 851.954, 829.736 826.405 C 840.200 812.364, 847.235 799.515, 855.965 778.500 C 859.690 769.534, 864.866 751.802, 867.933 737.500 C 873.434 711.846, 873.417 673.910, 867.893 646 C 861.780 615.117, 851.065 587.685, 835.690 563.558 C 821.804 541.767, 805.833 524.738, 777.500 501.514 C 754.271 482.472, 722.676 456.631, 712.650 448.473 C 685.877 426.688, 666.360 410.738, 651.607 398.586 C 641.648 390.384, 629.526 380.533, 624.669 376.695 C 618.881 372.123, 616.256 369.460, 617.051 368.968 C 617.718 368.556, 650.826 368.148, 690.623 368.063 C 765.573 367.902, 767.777 367.795, 782.500 363.625 C 802.527 357.953, 821.730 346.586, 836.556 331.628 C 854.402 313.623, 864.095 295.496, 870.047 269 C 872.493 258.114, 872.711 234.221, 870.471 222.500 C 865.820 198.152, 853.567 174.815, 836.602 157.994 C 818.662 140.205, 798.863 129.479, 773.913 124.034 C 764.695 122.022, 762.278 122.001, 552.047 122.118 C 430.827 122.186, 337.352 122.624, 334.500 123.138 M 342.500 176.531 C 326.613 179.037, 316.267 182.306, 302.600 189.138 C 288.986 195.944, 279.076 202.978, 268.981 213 C 257.573 224.325, 248.359 236.896, 241.171 250.943 C 229.502 273.748, 224.448 292.070, 221.866 320.923 C 220.859 332.186, 220.855 337.848, 221.849 349.250 C 223.260 365.428, 224.305 371.718, 227.703 384.500 C 232.302 401.797, 238.983 417.251, 247.782 430.947 C 257.226 445.646, 259.273 448.057, 286.224 476.234 C 295.553 485.987, 304.077 495.100, 305.166 496.484 C 306.254 497.868, 307.577 499, 308.105 499 C 308.632 499, 312.537 496.585, 316.782 493.634 C 327.281 486.336, 332.304 483.684, 341.455 480.610 C 364.030 473.028, 387.333 476.254, 408.500 489.893 C 415.227 494.227, 421.017 499.895, 466.328 546.500 L 479.939 560.500 479.933 544 L 479.926 527.500 464.828 512 C 456.525 503.475, 438.218 484.575, 424.147 470 C 387.488 432.028, 383.992 428.659, 378.476 425.988 C 375.710 424.650, 371.026 423.412, 367.853 423.183 C 363.272 422.852, 361.070 423.279, 356.436 425.401 C 353.279 426.846, 346.377 431.074, 341.098 434.797 C 322.833 447.676, 320.060 449.010, 311.601 448.985 C 300.566 448.952, 291.923 443.396, 286.745 433.005 L 284.500 428.500 284.500 348 L 284.500 267.500 286.835 260.500 C 290.458 249.638, 294.705 242.563, 301.894 235.411 C 306.902 230.429, 310.677 227.798, 317.500 224.532 C 323.314 221.750, 329.046 219.832, 333.693 219.113 C 338.799 218.323, 400.443 218, 546.261 218 C 772.956 218, 757.326 217.553, 766.151 224.285 C 768.495 226.072, 771.533 229.741, 772.945 232.489 C 775.029 236.542, 775.495 238.845, 775.474 244.979 C 775.445 253.568, 773.799 257.841, 768.363 263.438 C 766.452 265.406, 763 268.026, 760.694 269.258 L 756.500 271.500 549 272 C 434.875 272.275, 340.938 272.864, 340.250 273.309 C 339.276 273.939, 339 285.793, 339 327 C 339 356.085, 339.339 380.091, 339.753 380.347 C 340.167 380.603, 342.262 380.208, 344.410 379.470 C 356.209 375.414, 374.254 375.145, 387 378.837 C 394.562 381.027, 405.501 386.393, 412.182 391.190 C 414.757 393.039, 419.707 397.288, 423.182 400.632 C 429.009 406.239, 462.092 440.541, 473.448 452.750 C 476.134 455.637, 478.693 458, 479.136 458 C 479.579 458, 480.079 430.663, 480.248 397.250 C 480.485 350.445, 480.857 335.604, 481.868 332.595 C 482.612 330.379, 485.412 326.486, 488.340 323.595 C 497.776 314.278, 486.128 314.989, 629.201 314.995 C 716.201 314.998, 756.533 314.664, 760.201 313.908 C 785.169 308.761, 803.512 294.182, 813.536 271.514 C 817.149 263.345, 819.324 250.683, 818.691 241.500 C 817.962 230.914, 815.862 223.304, 810.826 213 C 807.472 206.137, 805.010 202.853, 798.041 195.946 C 790.905 188.873, 787.775 186.596, 779.955 182.788 C 762.654 174.361, 781.083 174.983, 553.127 175.135 C 395.480 175.240, 348.724 175.550, 342.500 176.531 M 534.514 374.139 C 534.235 374.887, 533.892 446.825, 533.753 534 C 533.531 672.806, 533.314 692.811, 532 695 C 528.296 701.173, 524.763 704.815, 519.824 707.551 L 514.500 710.500 388 711.024 L 261.500 711.548 253.728 714.303 C 249.454 715.819, 244.279 717.996, 242.228 719.141 C 219.675 731.739, 205.968 754.893, 206.015 780.312 C 206.033 789.807, 208.742 801.716, 212.882 810.500 C 216.744 818.693, 224.126 828.200, 231.195 834.083 C 234.434 836.778, 240.778 840.758, 245.292 842.926 C 261.276 850.603, 241.294 850, 479.644 850 C 667.089 850, 694.488 849.811, 701.500 848.475 C 732.495 842.569, 760.246 825.788, 781.122 800.327 C 798.682 778.910, 809.752 753.285, 815.609 720.500 C 818.061 706.775, 818.041 675.608, 815.573 661.500 C 810.037 629.871, 798.376 602.149, 781.534 580.581 C 772.317 568.776, 761.624 558.203, 746.500 545.939 C 739.350 540.141, 715.500 520.663, 693.500 502.654 C 671.500 484.645, 650.800 467.707, 647.500 465.015 C 644.200 462.323, 630.475 451.073, 617 440.015 C 581.592 410.959, 576.155 406.495, 559.500 392.801 C 534.272 372.059, 535.069 372.654, 534.514 374.139 M 579.435 476.890 C 573.525 479.575, 568.527 484.352, 565.969 489.762 C 561.815 498.548, 563.512 511.606, 569.704 518.500 C 571.552 520.558, 582.134 529.468, 599.397 543.500 C 608.883 551.211, 617.449 558.255, 647.500 583.057 C 655.200 589.413, 664.200 596.766, 667.500 599.398 C 676.944 606.930, 689.887 619.962, 694.151 626.232 C 703.852 640.495, 709.913 656.853, 712.615 676.061 C 716.503 703.709, 709.686 732.708, 693.595 756.965 C 684.087 771.298, 683.556 772.539, 683.526 780.500 C 683.506 785.922, 684.027 788.514, 685.837 792 C 690.626 801.219, 698.098 806.422, 708.211 807.578 C 714.871 808.340, 721.882 806.100, 727.729 801.342 C 735.435 795.071, 749.906 770.859, 757.519 751.500 C 761.917 740.317, 765.871 722.666, 767.548 706.736 C 768.806 694.776, 768.896 689.647, 768.019 679.736 C 764.537 640.391, 751.897 608.844, 729.259 583 C 722.449 575.226, 716.526 569.964, 691.500 549.460 C 681.050 540.898, 669.350 531.307, 665.500 528.147 C 661.650 524.987, 652.696 517.699, 645.603 511.951 C 638.510 506.203, 626.810 496.662, 619.603 490.750 C 603.248 477.331, 598.853 474.992, 590.054 475.022 C 585.858 475.036, 582.038 475.708, 579.435 476.890 M 583.718 580.062 C 578.051 581.440, 574.743 583.435, 570.698 587.913 C 565.717 593.426, 563.856 598.300, 563.792 606 C 563.731 613.368, 566.186 619.765, 570.942 624.629 C 572.516 626.239, 577.949 630.010, 583.015 633.009 C 605.567 646.358, 618.046 668.116, 618.282 694.500 C 618.331 700, 617.795 706.975, 617.092 710 C 613.652 724.789, 607.542 737.511, 600.495 744.558 C 596.728 748.325, 594.850 749.493, 587.500 752.643 C 586.400 753.114, 513.950 753.725, 426.500 754 L 267.500 754.500 262.834 757.243 C 256.989 760.679, 251.673 766.809, 250.161 771.858 C 248.524 777.322, 248.720 786.086, 250.579 790.535 C 253.017 796.371, 257.634 801.478, 263.320 804.629 L 268.500 807.500 429 807.500 C 596.481 807.500, 591.922 807.604, 604.500 803.481 C 627.649 795.891, 646.625 778.454, 659.511 752.933 C 664.447 743.156, 668.111 732.543, 670.640 720.695 C 673.146 708.955, 673.165 681.600, 670.676 670 C 666.731 651.612, 660.085 636.016, 650.366 622.333 C 639.772 607.420, 620.763 591.144, 605.500 583.922 C 596.876 579.841, 589.792 578.585, 583.718 580.062" fill="#F2E7D5" fill-rule="evenodd" transform="translate(512 512) scale(0.78) translate(-512 -512)"/>
  </g>
</svg>
